# xmcd
#
# Track frame offsets:
#	150
#	11694
#	24405
#	29841
#	39641
#	45000
#	52864
#	63924
#	67649
#	77301
#	89274
#	100897
#	108687
#	114473
#	128846
#	133893
#	146010
#	160528
#	173871
#	184295
#	195009
#	208627
#	217839
#	226522
#	239687
#	248524
#	261164
#	270377
#	280456
#	288901
#	299104
#	312339
#	317324
#
# Disc length: 4425 seconds
#
# Revision: 1
# Processed by: cddbd v1.4PL0 Copyright (c) Steve Scherf et al.
# Submitted via: audiograbber 1.82.00
#
DISCID=c5114721
DTITLE=Flatt And Scruggs - 12-08-62 Carnegie Hall
DYEAR=1900
DGENRE=
TTITLE0=Salty Dog
TTITLE1=Band Introductions
TTITLE2=Durham Reel
TTITLE3=Down The Road
TTITLE4=Rainbow
TTITLE5=Big Bill In Brooklyn
TTITLE6=Flint Hill Special
TTITLE7=Flint Hill Reprise
TTITLE8=Dig A Hole In The Meadow
TTITLE9=I Hung My Head And I Cried
TTITLE10=Hot Corn, Cold Corn
TTITLE11=Little Darlin' Pal Of Mine
TTITLE12=You Can't Stop Me From Dreaming
TTITLE13=Footprints In The Snow
TTITLE14=Martha White Theme
TTITLE15=I Wonder Where You Are Tonight
TTITLE16=Old Macdonald Had A Farm
TTITLE17=He Will Set Your Fields On Fire
TTITLE18=Let The Church Roll On
TTITLE19=The Wildwood Flower
TTITLE20=Hear The Whistle Blow
TTITLE21=Fiddle And Banjo
TTITLE22=Old Leather Britches
TTITLE23=The Ballad Of Jed Clampett
TTITLE24=Little Maggie
TTITLE25=Reuben
TTITLE26=Mama Blues
TTITLE27=I Know What It Means To Be Lonesome
TTITLE28=Foggy Mountain Rock
TTITLE29=Take This Hammer
TTITLE30=Mckinley's Gone
TTITLE31=Rollin' In My Sweet Baby's Arms
TTITLE32=Gotta Travel On
EXTD=
EXTT0=
EXTT1=
EXTT2=
EXTT3=
EXTT4=
EXTT5=
EXTT6=
EXTT7=
EXTT8=
EXTT9=
EXTT10=
EXTT11=
EXTT12=
EXTT13=
EXTT14=
EXTT15=
EXTT16=
EXTT17=
EXTT18=
EXTT19=
EXTT20=
EXTT21=
EXTT22=
EXTT23=
EXTT24=
EXTT25=
EXTT26=
EXTT27=
EXTT28=
EXTT29=
EXTT30=
EXTT31=
EXTT32=
PLAYORDER=
